<mxfile host="app.diagrams.net" modified="2024-03-28T15:21:10.848Z" agent="Mozilla/5.0 (Windows NT 10.0; Win64; x64) AppleWebKit/537.36 (KHTML, like Gecko) Chrome/123.0.0.0 Safari/537.36" version="24.2.0" etag="C8qGh0VCOmQaaBE5U9yH" type="github">
  <diagram name="Page-1" id="MiNZ7He--0sVtODrJBzt">
    <mxGraphModel>
      <root>
        <mxCell id="0" />
        <mxCell id="1" parent="0" />
      </root>
    </mxGraphModel>
  </diagram>
</mxfile>
